<svg width="30" height="19" viewBox="0 0 30 19" fill="none" xmlns="http://www.w3.org/2000/svg">
<path d="M1.07143 3.4898H28.9286C29.5203 3.4898 30 3.14261 30 2.71429V0.77551C30 0.347186 29.5203 0 28.9286 0H1.07143C0.479665 0 0 0.347186 0 0.77551V2.71429C0 3.14261 0.479665 3.4898 1.07143 3.4898ZM1.07143 11.2449H28.9286C29.5203 11.2449 30 10.8977 30 10.4694V8.53061C30 8.10229 29.5203 7.7551 28.9286 7.7551H1.07143C0.479665 7.7551 0 8.10229 0 8.53061V10.4694C0 10.8977 0.479665 11.2449 1.07143 11.2449ZM1.07143 19H28.9286C29.5203 19 30 18.6528 30 18.2245V16.2857C30 15.8574 29.5203 15.5102 28.9286 15.5102H1.07143C0.479665 15.5102 0 15.8574 0 16.2857V18.2245C0 18.6528 0.479665 19 1.07143 19Z" fill="white"/>
</svg>
