<svg width="181" height="18" viewBox="0 0 181 18" fill="none" xmlns="http://www.w3.org/2000/svg">
<path d="M0.801094 18V0.311999H5.28909V6.888H11.3131V0.311999H15.8011V18H11.3131V10.392H5.28909V18H0.801094ZM21.3367 18L18.6727 15.336V2.976L21.3367 0.311999H31.7047L34.3687 2.976V15.336L31.7047 18H21.3367ZM24.0247 14.592H29.0647L29.9047 13.752V4.56L29.0167 3.72H24.0247L23.1607 4.56V13.752L24.0247 14.592ZM37.0846 18V14.4H46.3006L47.1406 13.56V11.592L46.3006 10.752H39.0526L36.3886 8.064V2.976L39.0526 0.311999H50.6206V3.912H41.6446L40.8046 4.752V6.312L41.6446 7.152H48.8926L51.5566 9.816V15.336L48.8926 18H37.0846ZM53.8658 18V14.4H63.0818L63.9218 13.56V11.592L63.0818 10.752H55.8338L53.1698 8.064V2.976L55.8338 0.311999H67.4018V3.912H58.4258L57.5858 4.752V6.312L58.4258 7.152H65.6738L68.3378 9.816V15.336L65.6738 18H53.8658ZM69.4102 18L74.5942 0.311999H81.8902L87.0742 18H82.3222L81.4342 14.472H75.0502L74.1622 18H69.4102ZM75.9382 11.016H80.5462L78.6742 3.696H77.8102L75.9382 11.016ZM88.762 18V0.311999H100.81L103.498 2.976V9.312L101.482 11.328L104.17 18H99.658L97.33 11.976H93.25V18H88.762ZM93.25 8.568H98.29L99.13 7.728V4.56L98.29 3.72H93.25V8.568ZM104.637 18L109.821 0.311999H117.117L122.301 18H117.549L116.661 14.472H110.277L109.389 18H104.637ZM111.165 11.016H115.773L113.901 3.696H113.037L111.165 11.016ZM123.869 18V14.232H127.925V18H123.869ZM131.395 18V0.311999H142.939L146.611 3.984V14.328L142.939 18H131.395ZM135.883 14.592H140.995L142.267 13.32V4.992L140.995 3.72H135.883V14.592ZM149.254 18V0.311999H162.694V3.96H153.742V7.224H161.806V10.608H153.742V14.352H162.694V18H149.254ZM168.423 18L163.887 0.311999H169.023L171.951 14.616H172.815L175.743 0.311999H180.879L176.343 18H168.423Z" fill="#B6BBD2"/>
</svg>
